<svg width="602" height="249" viewBox="0 0 602 249" fill="none" xmlns="http://www.w3.org/2000/svg">
<path d="M524.354 140.932C528.774 132.644 541.052 121.414 545.947 118.532M521.648 122.763C522.748 123.155 542.067 134.681 546.359 137.375M14.8606 181.762C15.9531 172.432 23.2889 157.497 26.7952 153.028M5.71374 165.831C6.88039 165.795 29.0733 169.48 34.052 170.423M212.062 40.7239C209.436 38.8489 205.441 35.0656 204.743 31.8454C204.156 29.1365 208.214 21.75 208.302 17.3011C208.32 16.402 208.393 15.4077 208.26 14.6054C207.718 10.3524 209.642 2.32999 211.516 3.296C213.571 4.3549 217.64 7.08022 219.78 9.16263C223.623 6.34812 235.372 5.2206 239.583 7.90911C240.457 6.60912 245.665 0.679087 246.331 1.48357C248.163 3.69633 251.139 11.1628 250.35 15.6813C250.864 19.6073 251.256 22.2357 252.688 25.9365C255.153 32.3113 253.108 34.179 247.526 39.0129M231.481 81.4171C225.822 83.368 214.479 83.5224 212.967 73.4289C212.498 70.2965 212.998 67.2 214.879 64.601C218.805 59.1757 228.775 59.7353 231.857 65.6904C232.194 66.342 232.636 68.449 232.557 68.3577C230.409 65.8685 223.347 67.9471 223.793 72.4233C224.134 75.8411 227.575 77.9109 231.542 77.3776M215.075 35.3699C221.134 30.5559 230.177 30.0329 237.406 31.8516C239.56 32.3935 244.067 34.6667 245.256 35.9718M296.434 239.612C300.854 231.324 313.132 220.094 318.027 217.211M293.728 221.443C294.828 221.834 314.147 233.361 318.439 236.054M554.527 169.048C557.054 171.92 559.748 174.643 561.384 178.166C568.415 193.307 567.417 218.349 563.447 234.303M554.527 169.048C548.725 173.541 538.862 170.424 536.995 162.426C536.063 158.429 535.584 154.166 535.42 149.36C539.556 149.724 544.783 150.708 548.505 151.85C555.522 154.003 557.807 163.238 554.527 169.048ZM563.447 234.303C565.89 219.527 574.565 210.122 583.482 206.385C587.527 204.69 591.456 203.925 596.066 203.625C595.929 207.064 594.475 213.61 593.504 216.983C589.539 230.76 575.696 232.296 563.447 234.303ZM25.3559 127.454C28.6617 129.378 32.0792 131.109 34.7459 133.933C46.2072 146.071 53.1849 170.142 54.4677 186.532M25.3559 127.454C21.2733 133.551 10.9312 133.716 6.62959 126.72C4.47971 123.223 2.67648 119.332 1 114.824C5.03866 113.86 10.3083 113.14 14.2006 113.045C21.5383 112.867 26.6289 120.904 25.3559 127.454ZM54.4677 186.532C52.1094 171.743 57.3618 160.076 64.6387 153.708C67.9392 150.821 71.4241 148.852 75.7019 147.108C76.6604 150.413 77.3526 157.084 77.4991 160.59C78.0974 174.914 65.4522 180.752 54.4677 186.532ZM159.104 27.4496C168.211 25.149 184.779 26.6871 190.204 28.3725M170.734 13.2305C171.184 14.3078 175.641 36.3585 176.533 41.3466M20.8356 63.1963C21.5061 63.6284 20.5839 64.3133 20.1174 64.3106C18.8532 64.3036 18.3252 62.8003 18.6069 61.7598C19.1107 59.8986 21.3163 59.2165 22.9903 59.8532C25.4471 60.7875 26.3025 63.7763 25.2931 66.0693C23.9477 69.1254 20.1513 70.1575 17.2444 68.7681C13.5864 67.0196 12.3763 62.4053 14.1495 58.8868C16.297 54.6255 21.7345 53.2367 25.8633 55.3958C30.729 57.9402 32.2968 64.2039 29.7505 68.9422C26.8107 74.4128 19.7187 76.16 14.3715 73.2255C8.29555 69.8912 6.36879 61.9697 9.69201 56.0139C13.4201 49.3323 22.1721 47.2259 28.7363 50.9383C36.0237 55.0598 38.3099 64.6429 34.208 71.8152M567.464 84.5284C567.667 85.2997 566.524 85.1831 566.182 84.8665C565.253 84.0084 565.878 82.5426 566.788 81.9645C568.415 80.9305 570.503 81.915 571.31 83.5144C572.493 85.8614 571.108 88.6447 568.816 89.6563C565.761 91.0046 562.262 89.2053 561.054 86.2186C559.533 82.4601 561.753 78.2377 565.436 76.8367C569.896 75.14 574.846 77.7831 576.438 82.1623C578.313 87.3229 575.244 93.0043 570.168 94.7841C564.307 96.8389 557.894 93.3442 555.926 87.5707C553.691 81.0104 557.613 73.8633 564.084 71.7089C571.343 69.292 579.224 73.6414 581.565 80.8102C584.164 88.7688 579.387 97.385 571.52 99.9119M169.971 238.486C167.138 239.913 164.66 241.42 161.958 242.94C156.786 245.849 143.9 243.986 139.806 239.964C138.778 238.953 138.338 237.24 138.002 235.873C136.4 229.35 145.23 227.304 148.442 223.454C148.962 222.832 150.101 218.476 150.72 217.225C154.188 210.221 161.021 204.675 169.156 204.618C172.288 204.538 175.056 204.827 177.49 205.409C184.258 207.026 189.284 210.561 192.488 217.049C192.83 217.752 193.615 219.82 194.257 220.45C196.231 222.389 204.216 227.823 204.216 227.823C208.467 228.143 220.886 229.097 218.968 236.003C218.654 237.131 213.288 239.75 212.316 239.964C198.099 243.093 193.913 236.458 188.65 233.417C185.28 231.47 180.648 229.614 178.28 225.774C177.008 223.712 176.956 221.031 175.842 218.89M138.191 231.268C135.719 230.751 128.875 229.891 132.479 224.5C135.345 220.215 146.011 221.486 149.485 219.773M185.185 208.663C186.699 208.409 188.425 207.784 190.224 207.404C195.065 206.38 200.047 204.831 204.62 202.938C212.491 199.679 220.077 195.228 228.892 195.047C233.516 194.953 238.397 195.981 242.871 197.096C246.203 197.927 250.853 200.466 253.109 203.157C255.027 205.446 256.025 207.804 258.681 209.445C260.689 210.686 270.594 213.246 272.005 215.166C273.461 217.146 272.815 218.91 272.508 219.318C269.272 223.632 256.978 219.891 252.761 218.769C252.023 218.573 251.291 218.388 250.567 218.154C249.748 217.889 248.899 217.722 248.087 217.437C239.875 214.415 235.768 219.171 231.386 220.681C228.024 221.839 225.017 223.029 221.618 223.953C217.703 225.426 213.343 225.978 209.74 228.214M235.175 195.494C239.407 194.072 240.333 187.369 240.022 183.526C239.814 180.952 237.654 178.044 238.573 175.416C239.479 172.827 242.833 173.032 244.285 174.997C248.267 180.388 244.953 192.393 239.792 196.321M149.271 221.108C150.94 221.678 151.459 221.576 151.949 222.708C152.403 223.758 150.166 224.282 148.62 223.307M181.432 229.853C176.513 230.585 173.796 231.046 171.026 235.472C170.452 236.388 169.839 239.06 169.923 240.182C170.142 243.109 176.783 244.626 180.333 244.271C184.932 243.811 190.86 237.392 192.234 236.629M146.646 98.3276C143.644 88.3126 136.003 82.6188 134.906 82.1724C130.714 80.4665 128.817 93.9234 128.681 95.912C128.538 97.9993 127.255 102.536 127.286 102.448C125.983 106.2 122.261 109.09 119.664 112.015C116.897 115.131 114.132 118.264 111.225 121.264C109.144 123.412 105.815 126.308 104.722 129.194C102.387 135.363 104.901 142.696 107.382 148.42C108.849 151.806 111.054 155.154 114.445 159.03M141.311 99.6863C143.751 99.6579 146.008 98.4547 148.489 98.3449C159.509 97.8575 168.801 103.045 176.908 109.818C178.932 111.509 180.199 113.853 182.083 115.59C184.35 114.936 186.602 113.819 188.915 113.097C192.319 112.034 199.247 110.63 202.243 113.422C204.035 115.093 202.197 117.826 201.543 119.598C198.659 127.42 196.147 135.577 190.086 141.713C189.098 147.551 187.776 153.281 186.125 158.962C185.039 162.701 184.283 167.181 181.175 170.027C173.954 176.641 159.474 176.091 150.36 175.187C145.98 174.973 142.531 173.913 138.323 172.856C131.688 170.955 118.661 163.612 115.016 159.447M122.168 134.832C116.831 139.636 131.822 147.639 134.115 143.33M134.115 143.33C132.51 147.986 135.106 149.218 139.154 150.979C143.591 152.909 147.396 154.579 148.674 148.588M134.115 143.33C133.99 142.267 133.827 141.667 133.643 140.831C132.482 135.565 141.007 139.976 139.231 142.335C138.355 143.499 135.457 142.976 134.115 143.33ZM134.115 143.33C132.141 145.597 130.964 148.456 130.201 151.303M124.716 142.266C124.01 143.945 122.958 145.801 123.489 147.679C123.856 148.979 125.583 150.655 126.537 151.505C130.432 154.974 139.173 160.382 140.522 151.722M197.552 121.426C198.198 120.071 198.859 118.549 199.407 117.309C200.004 115.959 194.676 119.177 193.998 119.707C192.782 120.659 191.403 122.162 190.414 123.411C188.682 125.597 190.794 129.522 191.864 131.73M130.414 101.911C132.252 101.332 133.36 100.73 135.301 99.5689C136.661 98.756 139.178 98.4873 136.358 90.4641C135.916 89.2053 134.686 87.4526 133.668 85.9956C133.668 85.9956 132.629 88.0943 132.485 91.7666M11.6966 202.073C9.31021 209.172 10.0732 217.844 13.3234 224.505C28.3395 227.043 43.2528 229.564 58.6355 229.08C74.0181 228.597 89.4532 225.123 104.994 221.624C107.252 216.226 107.488 207.832 105.876 202.432M107.372 33.0508C107.372 34.6164 104.949 36.154 100.351 37.5074C95.7522 38.8607 89.1416 39.9815 81.1912 40.7557C73.2408 41.5299 64.2342 41.9299 55.0874 41.9151C45.9406 41.9003 36.9798 41.4712 29.1164 40.6714C21.253 39.8715 14.7675 38.7296 10.3193 37.3616C5.87119 35.9936 3.61914 34.4484 3.79219 32.8831C4.29757 25.3925 8.24866 16.6588 11.2052 10.5769M97.9806 10.7311C102.444 16.3584 105.694 24.0432 107.325 32.7097M277.073 84.3946C269.667 88.9442 263.673 108.411 267.07 118.023M283.811 86.7839C278.661 87.0149 272.415 93.5758 270.898 104.329C269.93 111.187 272.384 116.519 278.809 119.487M269.68 85.9182C266.395 91.927 262.266 103.933 261.391 112.234M324.135 130.332C305.603 127.45 287.512 132.707 282.904 148.564C280.327 157.432 282.689 168.242 285.042 176.9C286.807 183.394 288.746 192.048 294.651 196.061C297.423 197.945 304.511 197.316 304.511 197.316C304.511 197.316 311.01 197.794 311.453 194.961C312.069 191.021 307.675 189.296 306.236 187.361C304.077 184.456 303.941 180.038 303.134 176.695M297.265 145.418L305.311 151.405M305.122 143.549C302.002 146.155 298.769 149.094 296.987 152.811M296.562 165.839C299.656 175.292 307.085 180.953 312.107 183C312.107 183 316.413 184.407 319.486 184.658M316.768 165.997C316.768 165.997 316.983 171.938 317.561 175.937C318.391 181.683 320.34 187.744 324.407 192.999C327.943 197.568 335.211 197.645 342.723 196.225C342.723 196.225 346.728 194.586 344.154 190.298C342.293 187.198 339.865 188.52 338.253 182.514C336.911 174.992 341.296 178.395 344.431 168.156M355.999 161.766C358.458 159.284 360.622 157.997 363.591 156.493C364.494 156.036 364.913 154.791 365.708 153.328C368.488 148.211 375.561 145.943 375.898 147.428C376.463 149.926 377.33 154.913 377.583 156.673C381.897 156.459 383.044 157.149 385.239 158.656M339.893 186.359C342.889 186.002 353.441 186.58 357.114 186.804C363.534 187.196 372.913 189.949 377.367 189.888C385.432 189.776 394.207 187.816 402.189 186.663C406.96 185.975 412.41 186.735 413.883 181.798C414.763 178.848 410.539 174.441 404.314 174.605C398.411 174.76 387.211 175.582 382.249 173.002C374.197 168.815 366.212 168.325 361.202 166.323C354.922 163.492 348.728 150.703 348.728 150.703C348.728 150.703 342.96 139.25 332.399 133.914M301.395 131.509C299.237 129.072 296.819 119.575 306.222 112.987C313.955 107.57 330.131 108.03 334.151 118.182C336.474 124.049 335.451 131.051 330.439 135.15C324.821 139.743 319.504 138.723 319.504 138.723C319.504 138.723 323.455 134.75 324.136 130.319C324.539 127.696 323.796 124.913 320.409 122.699C314.713 118.976 306.413 123.226 306.245 130.162M384.269 159.956C387.94 154.883 397.444 153.459 397.502 154.335C397.741 157.947 397.087 162.754 396.562 164.356C398.474 166.406 397.544 170.053 397.781 170.127C402.069 171.46 401.956 170.498 404.237 174.542M215.523 136.816C225.676 133.565 239.846 133.181 249.382 135.449M214.029 145.349C223.427 142.966 239.409 141.041 251.151 143.614M451.394 71.2168C451.598 72.8045 448.97 72.3156 449.486 74.2892C450.577 78.4608 465.162 83.5835 469.28 83.468C473.568 83.3476 473.775 80.1538 473.775 80.1538M473.775 80.1538C473.775 80.1538 472.056 83.972 476.511 85.7744C489.809 91.155 494.284 90.0721 494.918 87.896C495.241 86.788 493.928 84.9263 494.726 84.5178M473.775 80.1538C473.775 80.1538 479.942 78.5058 479.812 77.4734C479.705 76.6178 470.834 74.0167 470.349 74.857C469.717 75.9517 473.775 80.1538 473.775 80.1538ZM452.318 77.344C451.858 79.078 452.499 82.4889 453.681 81.7547C454.435 81.2862 455.882 79.4076 455.882 79.4076M487.814 89.4129C487.814 89.4129 487.343 91.1989 487.407 92.0784C487.553 94.1087 491.368 90.837 491.737 89.5979M452.633 6.35374C452.633 6.35374 458.433 17.2538 455.914 21.0323C453.792 24.2131 445.759 26.8591 445.759 26.8591M543.53 37.2805C543.53 37.2805 531.952 41.1626 530.629 46.0137C529.152 51.427 535.804 57.7184 535.804 57.7184M384.064 74.9608C385.157 65.6313 392.492 50.6965 395.999 46.2273M374.917 59.0303C376.084 58.994 398.277 62.679 403.256 63.6217M181.899 91.8943L168.977 84.5652L171.954 70.0101L186.716 68.3436L192.863 81.8688L181.899 91.8943ZM527.291 1L526.865 8.81363L533.06 13.5946L525.497 15.6036L522.864 22.9727L518.617 16.4006L510.795 16.174L515.732 10.1034L513.531 2.5942L520.83 5.41432L527.291 1ZM217.002 32.5129C210.393 41.5269 202.235 61.7863 204.304 76.0415C206.496 85.7143 210.112 87.3606 226.008 87.1809C238.499 87.0397 252.555 89.3657 255.801 76.7046C257.069 62.0921 248.652 38.7022 242.12 31.2908C241.548 30.689 237.862 28.0171 234.232 27.3565C229.771 26.5448 225.501 26.0876 219.576 30.0271C219.576 30.0271 217.944 31.2849 217.002 32.5129ZM62.1595 132.655C62.1595 135.691 59.6709 138.152 56.6011 138.152C53.5312 138.152 51.0427 135.691 51.0427 132.655C51.0427 129.619 53.5312 127.157 56.6011 127.157C59.6709 127.157 62.1595 129.619 62.1595 132.655ZM73.6798 61.6248C73.6798 64.661 71.1912 67.1223 68.1213 67.1223C65.0515 67.1223 62.5629 64.661 62.5629 61.6248C62.5629 58.5886 65.0515 56.1272 68.1213 56.1272C71.1912 56.1272 73.6798 58.5886 73.6798 61.6248ZM144.883 239.168C144.562 238.256 142.997 237.23 142.792 236.95C141.566 235.275 143.009 234.278 145.96 234.813C149.425 235.442 150.104 238.388 146.587 238.207C145.862 238.17 145.144 238.543 144.883 239.168ZM162.117 224.591C156.335 225.134 161.407 228.303 164.349 226.827C165.708 226.145 163.953 224.637 162.117 224.591ZM406.744 15.9274C406.744 18.9636 404.256 21.4249 401.186 21.4249C398.116 21.4249 395.627 18.9636 395.627 15.9274C395.627 12.8912 398.116 10.4298 401.186 10.4298C404.256 10.4298 406.744 12.8912 406.744 15.9274ZM452.008 125.505C452.008 128.541 449.519 131.002 446.449 131.002C443.379 131.002 440.891 128.541 440.891 125.505C440.891 122.469 443.379 120.007 446.449 120.007C449.519 120.007 452.008 122.469 452.008 125.505ZM277.201 184.981C277.201 188.018 274.712 190.479 271.643 190.479C268.573 190.479 266.084 188.018 266.084 184.981C266.084 181.945 268.573 179.484 271.643 179.484C274.712 179.484 277.201 181.945 277.201 184.981ZM131.939 122.091C130.402 121.226 127.801 121.615 126.143 122.188C120.609 124.097 129.807 127.732 133.033 127.212C135.665 126.787 134.338 122.836 131.939 122.091ZM156.42 136.615C148.75 137.846 156.732 146.148 161.278 144.687C164.046 143.798 159.349 136.719 156.42 136.615ZM105.516 202.086C105.516 204.698 84.5622 206.815 58.7146 206.815C32.867 206.815 11.9134 204.698 11.9134 202.086C11.9134 199.475 32.867 197.358 58.7146 197.358C84.5622 197.358 105.516 199.475 105.516 202.086ZM64.5644 238.759C64.5644 243.46 60.715 247.271 55.9664 247.271C51.2178 247.271 47.3684 243.46 47.3684 238.759C47.3684 234.058 51.2178 230.247 55.9664 230.247C60.715 230.247 64.5644 234.058 64.5644 238.759ZM58.7902 228.854C58.7902 230.256 57.5334 231.393 55.983 231.393C54.4327 231.393 53.1759 230.256 53.1759 228.854C53.1759 227.453 54.4327 226.316 55.983 226.316C57.5334 226.316 58.7902 227.453 58.7902 228.854ZM210.889 181.142L197.17 186.844L187.508 175.559L195.256 162.882L209.706 166.333L210.889 181.142ZM135.03 194.703L127.525 196.918L125.096 204.357L120.669 197.904L112.844 197.892L117.614 191.688L115.207 184.242L122.581 186.861L128.919 182.271L128.707 190.093L135.03 194.703ZM422.44 165.834C430.567 160.974 429.372 153.658 422.665 140.711C432.585 157.743 436.398 156.174 444.53 152.208C438.763 155.948 435.023 161.995 443.996 177.646C437.465 166.371 431.18 160.371 422.44 165.834ZM564.111 27.0985C572.585 31.3264 578.104 26.378 585.397 13.7517C576.393 31.2852 579.77 33.6529 587.493 38.3655C581.235 35.523 574.125 35.6304 565.775 51.6221C571.754 40.0454 573.422 31.5182 564.111 27.0985ZM97.8521 10.4916C97.8521 13.9186 78.505 16.6968 54.6392 16.6968C30.7734 16.6968 11.4263 13.9186 11.4263 10.4916C11.4263 7.06447 30.7734 4.28627 54.6392 4.28627C78.505 4.28627 97.8521 7.06447 97.8521 10.4916ZM282.53 14.7584L282.104 22.572L288.299 27.353L280.736 29.362L278.103 36.7311L273.856 30.159L266.034 29.9324L270.971 23.8618L268.77 16.3526L276.069 19.1727L282.53 14.7584ZM337.745 96.6976L324.341 90.29L326.293 75.5624L340.903 72.8678L347.981 85.9301L337.745 96.6976ZM362.06 206.439L366.582 212.825L374.407 212.721L369.73 218.995L372.247 226.404L364.835 223.895L358.566 228.579L358.662 220.754L352.27 216.239L359.742 213.912L362.06 206.439ZM100.111 73.1763C85.9237 80.4548 71.2699 85.6795 57.1625 93.5136C55.022 91.5132 53.5912 90.0876 50.8244 89.2054C45.1228 87.3875 39.6689 91.305 40.6422 97.4508C41.3016 101.615 44.4987 104.405 48.5937 104.888C49.292 104.97 52.3149 104.376 52.1468 105.88C52.0339 106.891 51.3201 108.082 51.1199 109.15C50.2297 113.9 54.1707 118.04 58.7483 119.36C64.4308 120.999 67.0985 114.798 66.78 113.007C66.4729 111.279 65.3475 108.83 63.2974 106.961C77.4015 99.9436 91.5153 92.0436 105.402 84.531C107.892 86.504 108.479 88.8028 112.146 89.4434C118.333 90.524 122.324 85.3144 120.193 79.4579C118.805 75.6446 112.214 75.2163 112.145 73.3311C112.099 72.0575 113.762 70.9795 113.359 68.7559C112.475 63.8819 105.173 62.4343 101.352 64.534C98.389 66.1621 94.3958 72.7642 100.111 73.1763ZM62.6996 32.6159C68.8459 32.3014 74.9133 32.7971 81.098 32.2709C81.6458 33.3322 82.0011 34.0734 82.9177 34.8357C84.8068 36.4066 87.3066 35.8851 87.6991 33.5286C87.965 31.932 87.1227 30.4174 85.6651 29.5836C85.4166 29.4415 84.2241 29.1662 84.4707 28.655C84.6363 28.3117 85.0466 28.0007 85.2516 27.6506C86.1632 26.0945 85.2107 23.977 83.677 22.7655C81.7732 21.2616 80.0255 23.0501 79.924 23.7425C79.8261 24.4104 79.9429 25.4684 80.4731 26.4685C74.3897 26.7028 68.1946 27.2516 62.1312 27.6985C61.4504 26.5904 61.5148 25.6731 60.235 24.8519C58.0759 23.4665 55.9594 24.6865 56.0315 27.1264C56.0784 28.7151 58.4671 29.9323 58.2614 30.6179C58.1225 31.0811 57.3744 31.1984 57.2513 32.0593C56.9816 33.9461 59.5088 35.6429 61.1813 35.5083C62.4781 35.404 64.7659 33.6859 62.6996 32.6159ZM521.761 208.14C514.143 208.14 514.486 216.661 513.647 216.818C510.564 217.396 508.623 220.493 508.595 222.635C508.536 227.12 511.639 231.27 516.184 230.951C521.871 230.553 526.052 222.537 526.052 222.537C526.052 222.537 535.274 225.329 539.248 219.817C541.331 216.928 539.645 209.598 533.01 208.728C530.478 208.395 528.586 209.701 528.459 209.617C527.134 208.745 524.228 208.14 521.761 208.14ZM522.254 199.755C519.208 199.351 513.097 186.875 520.996 185.52C528.897 184.164 526.37 198.934 522.254 199.755ZM511.401 204.479C508.447 205.323 497.867 196.321 504.57 191.927C511.274 187.532 514.849 202.085 511.401 204.479ZM506.897 214.836C505.161 216.829 493.695 214.939 496.551 208.556C499.408 202.17 508.307 211.451 506.897 214.836ZM531.888 204.349C529.505 203.208 528.269 191.653 535.183 192.704C542.099 193.755 535.526 204.806 531.888 204.349ZM528.7 227.834C531.527 226.527 540.406 228.425 543.366 220.709C546.132 213.497 542.387 211.167 541.515 206.897C540.543 202.137 544.911 195.408 540.091 189.574C537.152 186.016 530.841 188.241 530.841 188.241C530.841 188.241 528.572 180.729 521.55 180.579C515.892 180.457 512.228 187.937 512.228 187.937C512.228 187.937 506.023 184.188 501.622 188.15C496.993 192.317 498.887 200.573 498.887 200.573C498.887 200.573 492.4 203.157 492.195 208.559C491.913 216.006 500.761 220.266 503.063 222.905C504.63 224.702 505.485 232.762 512.12 234.787C520.027 237.199 525.862 229.146 528.7 227.834ZM292.812 102C292.812 111.921 284.769 119.964 274.848 119.964C264.927 119.964 256.884 111.921 256.884 102C256.884 92.0791 264.927 84.0365 274.848 84.0365C284.769 84.0365 292.812 92.0791 292.812 102ZM571.697 130.932C571.697 130.932 569.035 130.728 568.297 128.297C566.97 123.928 575.64 118.447 580.676 116.497C587.944 113.683 596.533 113.071 597.885 117.729C598.351 119.334 596.815 121.841 596.815 121.841C596.815 121.841 601.479 134.02 600.96 136.213C600.329 138.879 579.8 146.12 578.263 145.489C576.074 144.591 571.697 130.932 571.697 130.932ZM219.628 123.18C211.702 138.418 212.397 156.161 216.577 159.795C220.728 163.403 246.063 161.416 250.621 157.609C256.3 152.865 248.533 126.232 243.043 121.707C243.505 121.322 243.883 118.835 243.541 118.719C242.883 118.495 242.124 118.975 241.445 118.944C240.511 118.901 240.507 117.906 238.819 117.959C237.946 117.986 237.33 118.937 236.476 119.048C235.47 119.178 234.88 118.082 233.902 118.156C232.66 118.251 231.926 119.419 230.75 119.645C229.661 119.855 229.021 119.048 228.01 119.048C226.858 119.048 225.979 120.092 224.897 120.272C222.968 120.592 222.592 119.592 221.718 119.819C220.45 119.9 220.994 121.535 218.952 121.018C218.736 120.963 219.915 123.103 219.628 123.18ZM470.041 167.842C474.533 167.946 508.386 165.095 509.672 163.478C512.037 160.503 512.053 157.175 511.018 155.363C508.406 150.793 503.233 151.771 503.233 151.771C503.233 151.771 504.948 148.147 502.205 144.772C499.874 141.904 495.313 141.509 495.313 141.509C495.313 141.509 495.607 138.434 492.827 136.558C490.4 135.125 488.042 134.846 485.615 133.546C483.377 132.346 484.64 128.742 484.64 128.742C484.64 128.742 477.184 133.689 477.679 139.455C477.759 140.394 478.873 142.687 478.873 142.687C478.873 142.687 472.766 144.807 471.14 149.757C470.045 153.092 471.445 154.903 471.445 154.903C471.445 154.903 466.792 157.192 466.236 160.225C465.101 166.415 470.041 167.842 470.041 167.842ZM437.892 100.46C437.892 100.46 417.213 85.9874 416.656 70.0239C416.454 64.2309 433.013 35.7096 438.963 27.6106C440.805 25.1033 447.469 1.75379 451.653 1.59185C462.155 1.18535 468.144 15.8403 471.759 23.4084C490.889 18.9686 512.675 29.2555 521.403 36.5628C524.539 34.1177 547.663 29.485 548.995 33.6506C549.443 35.0518 546.029 55.4211 540.173 62.9064C538.77 70.7303 535.441 100.44 533.453 104.655C527.08 118.165 491.885 117.64 491.885 117.64C491.885 117.64 451.568 107.53 437.892 100.46ZM452.198 60.8503C452.198 60.8503 453.397 58.0074 455.906 57.8047C458.047 57.6318 466.177 61.5469 466.219 64.2423C466.238 65.4506 464.198 65.4694 459.028 64.6528C452.051 63.5508 452.198 60.8503 452.198 60.8503ZM489.906 71.8574C490.617 69.3359 499.721 69.9848 501.527 70.647C504.432 71.7119 504.318 76.1919 502.529 76.7821C500.208 77.5476 490.703 75.1773 489.906 71.8574ZM467.597 51.0364C467.597 51.0364 464.923 53.067 466.215 55.534C468.624 60.1345 475.52 56.3353 474.126 52.3107C472.429 47.4118 467.597 51.0364 467.597 51.0364ZM488.03 60.5228C488.03 60.5228 488.995 63.7386 491.759 63.3929C496.912 62.7483 495.77 54.9585 491.512 54.8539C486.329 54.7266 488.03 60.5228 488.03 60.5228ZM429.392 61.7091C423.815 64.5952 425.619 69.8108 430.887 71.3793C436.622 73.0868 441.744 73.308 443.302 68.5778C444.636 64.5279 434.808 58.9059 429.392 61.7091ZM507.369 91.285C506.661 95.9178 512.684 97.8422 515.9 98.6139C520.346 99.6805 523.957 96.4124 522.084 92.0117C518.52 83.6398 508.065 86.7243 507.369 91.285ZM357.328 39.297L326.701 51.6646C326.701 51.6646 329.631 65.8497 316.211 64.7321C304.204 63.7322 308.771 50.4411 308.771 50.4411C308.771 50.4411 294.147 49.4713 297.34 37.975C300.786 25.5642 314.168 34.7224 314.168 34.7224L346.066 22.1802C346.066 22.1802 346.337 9.51755 358.113 11.238C368.334 12.7312 364.198 24.1851 364.198 24.1851C364.198 24.1851 379.745 25.6452 374.111 37.8536C369.94 46.8935 357.328 39.297 357.328 39.297ZM383.014 102.544C383.014 102.544 382.046 100.056 383.918 98.3387C387.282 95.2511 395.976 100.695 399.913 104.39C405.596 109.724 409.865 117.202 406.251 120.437C405.007 121.551 402.081 121.252 402.081 121.252C402.081 121.252 393.121 130.728 390.919 131.21C388.243 131.795 372.83 116.423 372.733 114.764C372.595 112.402 383.014 102.544 383.014 102.544ZM415.609 232.288C430.209 225.878 445.152 221.548 459.706 214.579C461.722 216.705 463.064 218.214 465.773 219.262C471.354 221.421 477.035 217.839 476.434 211.646C476.027 207.45 473.004 204.471 468.946 203.742C468.254 203.618 465.2 204.029 465.459 202.538C465.633 201.536 466.417 200.39 466.681 199.336C467.857 194.648 464.173 190.278 459.683 188.684C454.11 186.705 451.073 192.733 451.282 194.541C451.485 196.284 452.46 198.796 454.394 200.786C439.892 206.939 425.327 213.973 411.013 220.634C408.646 218.515 408.199 216.185 404.577 215.324C398.467 213.872 394.168 218.831 395.943 224.806C397.098 228.696 403.651 229.521 403.606 231.407C403.575 232.681 401.85 233.657 402.118 235.9C402.706 240.819 409.907 242.704 413.848 240.839C416.904 239.393 421.289 233.044 415.609 232.288ZM126.509 57.9514C134.636 53.0913 133.441 45.7757 126.734 32.8285C136.654 49.8605 140.467 48.2921 148.599 44.3253C142.832 48.0655 139.092 54.1131 148.065 69.7633C141.534 58.4886 135.249 52.4892 126.509 57.9514Z" stroke="white" stroke-opacity="0.35" stroke-width="2" stroke-linecap="round" stroke-linejoin="round"/>
</svg>
