<svg width="500" height="150" viewBox="0 0 500 150" fill="none" xmlns="http://www.w3.org/2000/svg">
<g clip-path="url(#clip0_59_240)">
<rect width="528.061" height="179.779" transform="translate(-13.75 -15)" fill="#F5C678"/>
<mask id="mask0_59_240" style="mask-type:alpha" maskUnits="userSpaceOnUse" x="2" y="-15" width="498" height="180">
<rect x="2" y="-15" width="498" height="180" fill="#F5C678"/>
</mask>
<g mask="url(#mask0_59_240)">
<path d="M491.354 69.932C495.774 61.6439 508.052 50.4138 512.947 47.5316M488.648 51.7628C489.748 52.1545 509.067 63.6807 513.359 66.3745M-18.1394 110.762C-17.0469 101.432 -9.71113 86.4973 -6.20485 82.0282M-27.2863 94.8312C-26.1196 94.7949 -3.92669 98.4799 1.05201 99.4225M179.062 -30.2761C176.436 -32.1511 172.441 -35.9344 171.743 -39.1546C171.156 -41.8635 175.214 -49.25 175.302 -53.6989C175.32 -54.598 175.393 -55.5923 175.26 -56.3946C174.718 -60.6476 176.642 -68.67 178.516 -67.704C180.571 -66.6451 184.64 -63.9198 186.78 -61.8374C190.623 -64.6519 202.372 -65.7794 206.583 -63.0909C207.457 -64.3909 212.665 -70.3209 213.331 -69.5164C215.163 -67.3037 218.139 -59.8372 217.35 -55.3187C217.864 -51.3927 218.256 -48.7643 219.688 -45.0635C222.153 -38.6887 220.108 -36.821 214.526 -31.9871M198.481 10.4171C192.822 12.368 181.479 12.5224 179.967 2.42892C179.498 -0.70351 179.998 -3.80004 181.879 -6.39899C185.805 -11.8243 195.775 -11.2647 198.857 -5.30955C199.194 -4.65796 199.636 -2.55101 199.557 -2.64228C197.409 -5.13146 190.347 -3.05294 190.793 1.42328C191.134 4.84105 194.575 6.91087 198.542 6.37762M182.075 -35.6301C188.134 -40.4441 197.177 -40.9671 204.406 -39.1484C206.56 -38.6065 211.067 -36.3333 212.256 -35.0282M263.434 168.612C267.854 160.324 280.132 149.094 285.027 146.211M260.728 150.443C261.828 150.834 281.147 162.361 285.439 165.054M521.527 98.0482C524.054 100.92 526.748 103.643 528.384 107.166C535.415 122.307 534.417 147.349 530.447 163.303M521.527 98.0482C515.725 102.541 505.862 99.4236 503.995 91.426C503.063 87.4288 502.584 83.1665 502.42 78.3599C506.556 78.7238 511.783 79.708 515.505 80.85C522.522 83.003 524.807 92.2385 521.527 98.0482ZM530.447 163.303C532.89 148.527 541.565 139.122 550.482 135.385C554.527 133.69 558.456 132.925 563.066 132.625C562.929 136.064 561.475 142.61 560.504 145.983C556.539 159.76 542.696 161.296 530.447 163.303ZM-7.6441 56.4536C-4.33829 58.3781 -0.920844 60.109 1.74594 62.9332C13.2072 75.0711 20.1849 99.1418 21.4677 115.532M-7.6441 56.4536C-11.7267 62.5514 -22.0688 62.7157 -26.3704 55.7198C-28.5203 52.2233 -30.3235 48.3316 -32 43.8239C-27.9613 42.8601 -22.6917 42.1397 -18.7994 42.0451C-11.4617 41.8669 -6.37107 49.9045 -7.6441 56.4536ZM21.4677 115.532C19.1094 100.743 24.3618 89.0757 31.6387 82.7085C34.9392 79.8206 38.4241 77.8518 42.7019 76.1082C43.6604 79.4133 44.3526 86.0837 44.4991 89.5902C45.0974 103.914 32.4522 109.752 21.4677 115.532ZM126.104 -43.5504C135.211 -45.851 151.779 -44.3129 157.204 -42.6275M137.734 -57.7695C138.184 -56.6922 142.641 -34.6415 143.533 -29.6534M-12.1644 -7.80371C-11.4939 -7.37158 -12.4161 -6.68673 -12.8826 -6.68935C-14.1468 -6.69644 -14.6748 -8.19969 -14.3931 -9.2402C-13.8893 -11.1014 -11.6837 -11.7835 -10.0097 -11.1468C-7.55292 -10.2125 -6.69753 -7.22371 -7.70693 -4.93075C-9.05231 -1.87459 -12.8487 -0.842466 -15.7556 -2.2319C-19.4136 -3.98038 -20.6237 -8.59467 -18.8505 -12.1132C-16.703 -16.3745 -11.2655 -17.7633 -7.13669 -15.6042C-2.27104 -13.0598 -0.703168 -6.79609 -3.24949 -2.05778C-6.18932 3.41278 -13.2813 5.16 -18.6285 2.22554C-24.7044 -1.10877 -26.6312 -9.03027 -23.308 -14.9861C-19.5799 -21.6677 -10.8279 -23.7741 -4.26373 -20.0617C3.02373 -15.9402 5.30994 -6.35707 1.20796 0.81518M534.464 13.5284C534.667 14.2997 533.524 14.1831 533.182 13.8665C532.253 13.0084 532.878 11.5426 533.788 10.9645C535.415 9.93054 537.503 10.915 538.31 12.5144C539.493 14.8614 538.108 17.6447 535.816 18.6563C532.761 20.0046 529.262 18.2053 528.054 15.2186C526.533 11.4601 528.753 7.23765 532.436 5.83671C536.896 4.13997 541.846 6.78311 543.438 11.1623C545.313 16.3229 542.244 22.0043 537.168 23.7841C531.307 25.8389 524.894 22.3442 522.926 16.5707C520.691 10.0104 524.613 2.86328 531.084 0.708882C538.343 -1.70803 546.224 2.64144 548.565 9.81016C551.164 17.7688 546.387 26.385 538.52 28.9119M136.971 167.486C134.138 168.913 131.66 170.42 128.958 171.94C123.786 174.849 110.9 172.986 106.806 168.964C105.778 167.953 105.338 166.24 105.002 164.873C103.4 158.35 112.23 156.304 115.442 152.454C115.962 151.832 117.101 147.476 117.72 146.225C121.188 139.221 128.021 133.675 136.156 133.618C139.288 133.538 142.056 133.827 144.49 134.409C151.258 136.026 156.284 139.561 159.488 146.049C159.83 146.752 160.615 148.82 161.257 149.45C163.231 151.389 171.216 156.823 171.216 156.823C175.467 157.143 187.886 158.097 185.968 165.003C185.654 166.131 180.288 168.75 179.316 168.964C165.099 172.093 160.913 165.458 155.65 162.417C152.28 160.47 147.648 158.614 145.28 154.774C144.008 152.712 143.956 150.031 142.842 147.89M105.191 160.268C102.719 159.751 95.8746 158.891 99.4792 153.5C102.345 149.215 113.011 150.486 116.485 148.773M152.185 137.663C153.699 137.409 155.425 136.784 157.224 136.404C162.065 135.38 167.047 133.831 171.62 131.938C179.491 128.679 187.077 124.228 195.892 124.047C200.516 123.953 205.397 124.981 209.871 126.096C213.203 126.927 217.853 129.466 220.109 132.157C222.027 134.446 223.025 136.804 225.681 138.445C227.689 139.686 237.594 142.246 239.005 144.166C240.461 146.146 239.815 147.91 239.508 148.318C236.272 152.632 223.978 148.891 219.761 147.769C219.023 147.573 218.291 147.388 217.567 147.154C216.748 146.889 215.899 146.722 215.087 146.437C206.875 143.415 202.768 148.171 198.386 149.681C195.024 150.839 192.017 152.029 188.618 152.953C184.703 154.426 180.343 154.978 176.74 157.214M202.175 124.494C206.407 123.072 207.333 116.369 207.022 112.526C206.814 109.952 204.654 107.044 205.573 104.416C206.479 101.827 209.833 102.032 211.285 103.997C215.267 109.388 211.953 121.393 206.792 125.321M116.271 150.108C117.94 150.678 118.459 150.576 118.949 151.708C119.403 152.758 117.166 153.282 115.62 152.307M148.432 158.853C143.513 159.585 140.796 160.046 138.026 164.472C137.452 165.388 136.839 168.06 136.923 169.182C137.142 172.109 143.783 173.626 147.333 173.271C151.932 172.811 157.86 166.392 159.234 165.629M113.646 27.3276C110.644 17.3126 103.003 11.6188 101.906 11.1724C97.7144 9.46646 95.8175 22.9234 95.6811 24.912C95.538 26.9993 94.2551 31.5356 94.2863 31.4479C92.9832 35.1996 89.2613 38.0903 86.6638 41.015C83.8966 44.1307 81.1316 47.2643 78.2248 50.2639C76.1436 52.4117 72.8152 55.3081 71.7223 58.1944C69.3865 64.3631 71.9005 71.6962 74.3819 77.4204C75.8495 80.806 78.054 84.1537 81.4453 88.0303M108.311 28.6863C110.751 28.6579 113.008 27.4547 115.489 27.3449C126.509 26.8575 135.801 32.0446 143.908 38.8175C145.932 40.5085 147.199 42.8529 149.083 44.5899C151.35 43.9364 153.602 42.8195 155.915 42.0973C159.319 41.034 166.247 39.6302 169.243 42.422C171.035 44.0929 169.197 46.8257 168.543 48.5978C165.659 56.42 163.147 64.5771 157.086 70.7133C156.098 76.5507 154.776 82.2807 153.125 87.9624C152.039 91.7012 151.283 96.1811 148.175 99.0275C140.954 105.641 126.474 105.091 117.36 104.187C112.98 103.973 109.531 102.913 105.323 101.856C98.6876 99.9546 85.6612 92.6119 82.0156 88.4468M89.168 63.8323C83.8307 68.636 98.8215 76.6388 101.115 72.3302M101.115 72.3302C99.5096 76.9859 102.106 78.2182 106.154 79.9786C110.591 81.9086 114.396 83.5793 115.674 77.5877M101.115 72.3302C100.99 71.2673 100.827 70.6666 100.643 69.8314C99.4825 64.5653 108.007 68.9761 106.231 71.335C105.355 72.4992 102.457 71.976 101.115 72.3302ZM101.115 72.3302C99.1409 74.5966 97.9636 77.4556 97.2006 80.3028M91.7161 71.2659C91.0096 72.9449 89.9578 74.8013 90.4888 76.6792C90.8565 77.9792 92.5826 79.6554 93.5369 80.5054C97.4318 83.9742 106.173 89.3819 107.522 80.7218M164.552 50.4264C165.198 49.071 165.859 47.5486 166.407 46.3091C167.004 44.9589 161.676 48.177 160.998 48.7071C159.782 49.6587 158.403 51.1622 157.414 52.4108C155.682 54.5974 157.794 58.522 158.864 60.7296M97.4143 30.9109C99.2523 30.3317 100.36 29.7298 102.301 28.5689C103.661 27.756 106.178 27.4873 103.358 19.4641C102.916 18.2053 101.686 16.4526 100.668 14.9956C100.668 14.9956 99.6286 17.0943 99.485 20.7666M-21.3034 131.073C-23.6898 138.172 -22.9268 146.844 -19.6766 153.505C-4.66048 156.043 10.2528 158.564 25.6355 158.08C41.0181 157.597 56.4532 154.123 71.994 150.624C74.2523 145.226 74.4882 136.832 72.8758 131.432M74.3718 -37.9492C74.3718 -36.3836 71.9493 -34.846 67.3508 -33.4926C62.7522 -32.1393 56.1416 -31.0185 48.1912 -30.2443C40.2408 -29.4701 31.2342 -29.0701 22.0874 -29.0849C12.9406 -29.0997 3.97983 -29.5288 -3.88357 -30.3286C-11.747 -31.1285 -18.2325 -32.2704 -22.6807 -33.6384C-27.1288 -35.0064 -29.3809 -36.5516 -29.2078 -38.1169C-28.7024 -45.6075 -24.7513 -54.3412 -21.7948 -60.4231M64.9806 -60.2689C69.4437 -54.6416 72.6935 -46.9568 74.3252 -38.2903M244.073 13.3946C236.667 17.9442 230.673 37.4109 234.07 47.0232M250.811 15.7839C245.661 16.0149 239.415 22.5758 237.898 33.3288C236.93 40.1871 239.384 45.5186 245.809 48.4872M236.68 14.9182C233.395 20.927 229.266 32.9325 228.391 41.2338M291.135 59.3316C272.603 56.4497 254.512 61.7066 249.904 77.5638C247.327 86.4324 249.689 97.2424 252.042 105.9C253.807 112.394 255.746 121.048 261.651 125.061C264.423 126.945 271.511 126.316 271.511 126.316C271.511 126.316 278.01 126.794 278.453 123.961C279.069 120.021 274.675 118.296 273.236 116.361C271.077 113.456 270.941 109.038 270.134 105.695M264.265 74.418L272.311 80.405M272.122 72.5492C269.002 75.1548 265.769 78.0936 263.987 81.8106M263.562 94.8388C266.656 104.292 274.085 109.953 279.107 112C279.107 112 283.413 113.407 286.486 113.658M283.768 94.9969C283.768 94.9969 283.983 100.938 284.561 104.937C285.391 110.683 287.34 116.744 291.407 121.999C294.943 126.568 302.211 126.645 309.723 125.225C309.723 125.225 313.728 123.586 311.154 119.298C309.293 116.198 306.865 117.52 305.253 111.514C303.911 103.992 308.296 107.395 311.431 97.1562M322.999 90.7664C325.458 88.284 327.622 86.9971 330.591 85.4932C331.494 85.0356 331.913 83.7913 332.708 82.3277C335.488 77.2109 342.561 74.9431 342.898 76.4277C343.463 78.9258 344.33 83.9134 344.583 85.6734C348.897 85.4592 350.044 86.1489 352.239 87.6557M306.893 115.359C309.889 115.002 320.441 115.58 324.114 115.804C330.534 116.196 339.913 118.949 344.367 118.888C352.432 118.776 361.207 116.816 369.189 115.663C373.96 114.975 379.41 115.735 380.883 110.798C381.763 107.848 377.539 103.441 371.314 103.605C365.411 103.76 354.211 104.582 349.249 102.002C341.197 97.815 333.212 97.3247 328.202 95.3227C321.922 92.4919 315.728 79.7029 315.728 79.7029C315.728 79.7029 309.96 68.2501 299.399 62.9142M268.395 60.5089C266.237 58.072 263.819 48.5747 273.222 41.9874C280.955 36.5703 297.131 37.0295 301.151 47.1823C303.474 53.0493 302.451 60.0511 297.439 64.1497C291.821 68.7434 286.504 67.7226 286.504 67.7226C286.504 67.7226 290.455 63.7496 291.136 59.3193C291.539 56.6964 290.796 53.9132 287.409 51.6993C281.713 47.9763 273.413 52.2258 273.245 59.1617M351.269 88.9564C354.94 83.8826 364.444 82.4593 364.502 83.3346C364.741 86.9473 364.087 91.7538 363.562 93.356C365.474 95.406 364.544 99.0531 364.781 99.1267C369.069 100.46 368.956 99.498 371.237 103.542M182.523 65.8164C192.676 62.5649 206.846 62.1813 216.382 64.4491M181.029 74.3491C190.427 71.9656 206.409 70.0409 218.151 72.6136M418.394 0.216787C418.598 1.80454 415.97 1.31556 416.486 3.28917C417.577 7.4608 432.162 12.5835 436.28 12.468C440.568 12.3476 440.775 9.15382 440.775 9.15382M440.775 9.15382C440.775 9.15382 439.056 12.972 443.511 14.7744C456.809 20.155 461.284 19.0721 461.918 16.896C462.241 15.788 460.928 13.9263 461.726 13.5178M440.775 9.15382C440.775 9.15382 446.942 7.50577 446.812 6.47341C446.705 5.61782 437.834 3.01665 437.349 3.85705C436.717 4.95172 440.775 9.15382 440.775 9.15382ZM419.318 6.344C418.858 8.07799 419.499 11.4889 420.681 10.7547C421.435 10.2862 422.882 8.40757 422.882 8.40757M454.814 18.4129C454.814 18.4129 454.343 20.1989 454.407 21.0784C454.553 23.1087 458.368 19.837 458.737 18.5979M419.633 -64.6463C419.633 -64.6463 425.433 -53.7462 422.914 -49.9677C420.792 -46.7869 412.759 -44.1409 412.759 -44.1409M510.53 -33.7195C510.53 -33.7195 498.952 -29.8374 497.629 -24.9863C496.152 -19.573 502.804 -13.2816 502.804 -13.2816M351.064 3.96077C352.157 -5.36866 359.492 -20.3035 362.999 -24.7727M341.917 -11.9697C343.084 -12.006 365.277 -8.32098 370.256 -7.37829M148.899 20.8943L135.977 13.5652L138.954 -0.989908L153.716 -2.65635L159.863 10.8688L148.899 20.8943ZM494.291 -70L493.865 -62.1864L500.06 -57.4054L492.497 -55.3964L489.864 -48.0273L485.617 -54.5994L477.795 -54.826L482.732 -60.8966L480.531 -68.4058L487.83 -65.5857L494.291 -70ZM184.002 -38.4871C177.393 -29.4731 169.235 -9.21373 171.304 5.04149C173.496 14.7143 177.112 16.3606 193.008 16.1809C205.499 16.0397 219.555 18.3657 222.801 5.70462C224.069 -8.9079 215.652 -32.2978 209.12 -39.7092C208.548 -40.311 204.862 -42.9829 201.232 -43.6435C196.771 -44.4552 192.501 -44.9124 186.576 -40.9729C186.576 -40.9729 184.944 -39.7151 184.002 -38.4871ZM29.1595 61.6549C29.1595 64.6911 26.6709 67.1525 23.6011 67.1525C20.5312 67.1525 18.0427 64.6911 18.0427 61.6549C18.0427 58.6187 20.5312 56.1574 23.6011 56.1574C26.6709 56.1574 29.1595 58.6187 29.1595 61.6549ZM40.6798 -9.37522C40.6798 -6.33901 38.1912 -3.87768 35.1213 -3.87768C32.0515 -3.87768 29.5629 -6.33901 29.5629 -9.37522C29.5629 -12.4114 32.0515 -14.8728 35.1213 -14.8728C38.1912 -14.8728 40.6798 -12.4114 40.6798 -9.37522ZM111.883 168.168C111.562 167.256 109.997 166.23 109.792 165.95C108.566 164.275 110.009 163.278 112.96 163.813C116.425 164.442 117.104 167.388 113.587 167.207C112.862 167.17 112.144 167.543 111.883 168.168ZM129.117 153.591C123.335 154.134 128.407 157.303 131.349 155.827C132.708 155.145 130.953 153.637 129.117 153.591ZM373.744 -55.0726C373.744 -52.0364 371.256 -49.5751 368.186 -49.5751C365.116 -49.5751 362.627 -52.0364 362.627 -55.0726C362.627 -58.1088 365.116 -60.5702 368.186 -60.5702C371.256 -60.5702 373.744 -58.1088 373.744 -55.0726ZM419.008 54.505C419.008 57.5412 416.519 60.0025 413.449 60.0025C410.379 60.0025 407.891 57.5412 407.891 54.505C407.891 51.4687 410.379 49.0074 413.449 49.0074C416.519 49.0074 419.008 51.4687 419.008 54.505ZM244.201 113.981C244.201 117.018 241.712 119.479 238.643 119.479C235.573 119.479 233.084 117.018 233.084 113.981C233.084 110.945 235.573 108.484 238.643 108.484C241.712 108.484 244.201 110.945 244.201 113.981ZM98.9394 51.0915C97.4015 50.2261 94.8011 50.6155 93.1425 51.1878C87.6089 53.0973 96.8067 56.7323 100.033 56.2117C102.665 55.787 101.338 51.8357 98.9394 51.0915ZM123.42 65.615C115.75 66.8461 123.732 75.1477 128.278 73.6874C131.046 72.798 126.349 65.7187 123.42 65.615ZM72.5158 131.086C72.5158 133.698 51.5622 135.815 25.7146 135.815C-0.132971 135.815 -21.0866 133.698 -21.0866 131.086C-21.0866 128.475 -0.132971 126.358 25.7146 126.358C51.5622 126.358 72.5158 128.475 72.5158 131.086ZM31.5644 167.759C31.5644 172.46 27.715 176.271 22.9664 176.271C18.2178 176.271 14.3684 172.46 14.3684 167.759C14.3684 163.058 18.2178 159.247 22.9664 159.247C27.715 159.247 31.5644 163.058 31.5644 167.759ZM25.7902 157.854C25.7902 159.256 24.5334 160.393 22.983 160.393C21.4327 160.393 20.1759 159.256 20.1759 157.854C20.1759 156.453 21.4327 155.316 22.983 155.316C24.5334 155.316 25.7902 156.453 25.7902 157.854ZM177.889 110.142L164.17 115.844L154.508 104.559L162.256 91.8823L176.706 95.3332L177.889 110.142ZM102.03 123.703L94.5253 125.918L92.0957 133.357L87.6694 126.904L79.8442 126.892L84.6136 120.688L82.207 113.242L89.581 115.861L95.9188 111.271L95.7068 119.093L102.03 123.703ZM389.44 94.8336C397.567 89.9736 396.372 82.6579 389.665 69.7107C399.585 86.7427 403.398 85.1743 411.53 81.2075C405.763 84.9478 402.023 90.9953 410.996 106.646C404.465 95.3709 398.18 89.3714 389.44 94.8336ZM531.111 -43.9015C539.585 -39.6736 545.104 -44.622 552.397 -57.2483C543.393 -39.7148 546.77 -37.3471 554.493 -32.6345C548.235 -35.477 541.125 -35.3696 532.775 -19.3779C538.754 -30.9546 540.422 -39.4818 531.111 -43.9015ZM64.8521 -60.5084C64.8521 -57.0814 45.505 -54.3032 21.6392 -54.3032C-2.22664 -54.3032 -21.5737 -57.0814 -21.5737 -60.5084C-21.5737 -63.9355 -2.22664 -66.7137 21.6392 -66.7137C45.505 -66.7137 64.8521 -63.9355 64.8521 -60.5084ZM249.53 -56.2416L249.104 -48.428L255.299 -43.647L247.736 -41.638L245.103 -34.2689L240.856 -40.841L233.034 -41.0676L237.971 -47.1382L235.77 -54.6474L243.069 -51.8273L249.53 -56.2416ZM304.745 25.6976L291.341 19.29L293.293 4.56236L307.903 1.86779L314.981 14.9301L304.745 25.6976ZM329.06 135.439L333.582 141.825L341.407 141.721L336.73 147.995L339.247 155.404L331.835 152.895L325.566 157.579L325.662 149.754L319.27 145.239L326.742 142.912L329.06 135.439ZM67.111 2.17627C52.9237 9.45484 38.2699 14.6795 24.1625 22.5136C22.022 20.5132 20.5912 19.0876 17.8244 18.2054C12.1228 16.3875 6.66892 20.305 7.64215 26.4508C8.30158 30.6151 11.4987 33.4054 15.5937 33.888C16.292 33.9703 19.3149 33.376 19.1468 34.8801C19.0339 35.8906 18.3201 37.0816 18.1199 38.1501C17.2297 42.9001 21.1707 47.0396 25.7483 48.3601C31.4308 49.9993 34.0985 43.7984 33.78 42.0069C33.4729 40.2793 32.3475 37.8304 30.2974 35.9605C44.4015 28.9436 58.5153 21.0436 72.4016 13.531C74.8922 15.504 75.4787 17.8028 79.146 18.4434C85.3328 19.524 89.3244 14.3144 87.1926 8.45792C85.8046 4.64461 79.2136 4.21626 79.1453 2.3311C79.0992 1.05754 80.7624 -0.0204781 80.3592 -2.24412C79.4753 -7.11811 72.1732 -8.5657 68.352 -6.46601C65.389 -4.83793 61.3958 1.7642 67.111 2.17627ZM29.6996 -38.3841C35.8459 -38.6986 41.9133 -38.2029 48.098 -38.7291C48.6458 -37.6678 49.0011 -36.9266 49.9177 -36.1643C51.8068 -34.5934 54.3066 -35.1149 54.6991 -37.4714C54.965 -39.068 54.1227 -40.5826 52.6651 -41.4164C52.4166 -41.5585 51.2241 -41.8338 51.4707 -42.345C51.6363 -42.6883 52.0466 -42.9993 52.2516 -43.3494C53.1632 -44.9055 52.2107 -47.023 50.677 -48.2345C48.7732 -49.7384 47.0255 -47.9499 46.924 -47.2575C46.8261 -46.5896 46.9429 -45.5316 47.4731 -44.5315C41.3897 -44.2972 35.1946 -43.7484 29.1312 -43.3015C28.4504 -44.4096 28.5148 -45.3269 27.235 -46.1481C25.0759 -47.5335 22.9594 -46.3135 23.0315 -43.8736C23.0784 -42.2849 25.4671 -41.0677 25.2614 -40.3821C25.1225 -39.9189 24.3744 -39.8016 24.2513 -38.9407C23.9816 -37.0539 26.5088 -35.3571 28.1813 -35.4917C29.4781 -35.596 31.7659 -37.3141 29.6996 -38.3841ZM488.761 137.14C481.143 137.14 481.486 145.661 480.647 145.818C477.564 146.396 475.623 149.493 475.595 151.635C475.536 156.12 478.639 160.27 483.184 159.951C488.871 159.553 493.052 151.537 493.052 151.537C493.052 151.537 502.274 154.329 506.248 148.817C508.331 145.928 506.645 138.598 500.01 137.728C497.478 137.395 495.586 138.701 495.459 138.617C494.134 137.745 491.228 137.14 488.761 137.14ZM489.254 128.755C486.208 128.351 480.097 115.875 487.996 114.52C495.897 113.164 493.37 127.934 489.254 128.755ZM478.401 133.479C475.447 134.323 464.867 125.321 471.57 120.927C478.274 116.532 481.849 131.085 478.401 133.479ZM473.897 143.836C472.161 145.829 460.695 143.939 463.551 137.556C466.408 131.17 475.307 140.451 473.897 143.836ZM498.888 133.349C496.505 132.208 495.269 120.653 502.183 121.704C509.099 122.755 502.526 133.806 498.888 133.349ZM495.7 156.834C498.527 155.527 507.406 157.425 510.366 149.709C513.132 142.497 509.387 140.167 508.515 135.897C507.543 131.137 511.911 124.408 507.091 118.574C504.152 115.016 497.841 117.241 497.841 117.241C497.841 117.241 495.572 109.729 488.55 109.579C482.892 109.457 479.228 116.937 479.228 116.937C479.228 116.937 473.023 113.188 468.622 117.15C463.993 121.317 465.887 129.573 465.887 129.573C465.887 129.573 459.4 132.157 459.195 137.559C458.913 145.006 467.761 149.266 470.063 151.905C471.63 153.702 472.485 161.762 479.12 163.787C487.027 166.199 492.862 158.146 495.7 156.834ZM259.812 31.0002C259.812 40.9213 251.769 48.9639 241.848 48.9639C231.927 48.9639 223.884 40.9213 223.884 31.0002C223.884 21.0791 231.927 13.0365 241.848 13.0365C251.769 13.0365 259.812 21.0791 259.812 31.0002ZM538.697 59.9319C538.697 59.9319 536.035 59.728 535.297 57.297C533.97 52.9277 542.64 47.447 547.676 45.497C554.944 42.6828 563.533 42.0715 564.885 46.729C565.351 48.3335 563.815 50.8411 563.815 50.8411C563.815 50.8411 568.479 63.0202 567.96 65.2134C567.329 67.8794 546.8 75.12 545.263 74.4891C543.074 73.5909 538.697 59.9319 538.697 59.9319ZM186.628 52.1804C178.702 67.4183 179.397 85.1611 183.577 88.795C187.728 92.4032 213.063 90.4165 217.621 86.6089C223.3 81.8647 215.533 55.2317 210.043 50.7074C210.505 50.3224 210.883 47.8349 210.541 47.7186C209.883 47.4946 209.124 47.9752 208.445 47.9438C207.511 47.9008 207.507 46.9058 205.819 46.9585C204.946 46.9858 204.33 47.9373 203.476 48.0476C202.47 48.1775 201.88 47.0821 200.902 47.1564C199.66 47.2508 198.926 48.4187 197.75 48.6451C196.661 48.8548 196.021 48.0476 195.01 48.0476C193.858 48.0476 192.979 49.0924 191.897 49.2719C189.968 49.5919 189.592 48.5921 188.718 48.8194C187.45 48.8996 187.994 50.5355 185.952 50.0182C185.736 49.9633 186.915 52.1035 186.628 52.1804ZM437.041 96.8415C441.533 96.9462 475.386 94.0945 476.672 92.4781C479.037 89.5034 479.053 86.1752 478.018 84.3635C475.406 79.7932 470.233 80.7708 470.233 80.7708C470.233 80.7708 471.948 77.1465 469.205 73.7721C466.874 70.9044 462.313 70.5091 462.313 70.5091C462.313 70.5091 462.607 67.4339 459.827 65.5584C457.4 64.1247 455.042 63.8462 452.615 62.5455C450.377 61.3456 451.64 57.7424 451.64 57.7424C451.64 57.7424 444.184 62.6889 444.679 68.4548C444.759 69.3939 445.873 71.6866 445.873 71.6866C445.873 71.6866 439.766 73.8069 438.14 78.7567C437.045 82.0916 438.445 83.9032 438.445 83.9032C438.445 83.9032 433.792 86.1924 433.236 89.2248C432.101 95.4155 437.041 96.8415 437.041 96.8415ZM404.892 29.4597C404.892 29.4597 384.213 14.9874 383.656 -0.976092C383.454 -6.7691 400.013 -35.2904 405.963 -43.3894C407.805 -45.8967 414.469 -69.2462 418.653 -69.4081C429.155 -69.8146 435.144 -55.1597 438.759 -47.5916C457.889 -52.0314 479.675 -41.7445 488.403 -34.4372C491.539 -36.8823 514.663 -41.515 515.995 -37.3494C516.443 -35.9482 513.029 -15.5789 507.173 -8.09359C505.77 -0.269658 502.441 29.4404 500.453 33.6553C494.08 47.1653 458.885 46.6402 458.885 46.6402C458.885 46.6402 418.568 36.5302 404.892 29.4597ZM419.198 -10.1497C419.198 -10.1497 420.397 -12.9926 422.906 -13.1953C425.047 -13.3682 433.177 -9.45311 433.219 -6.75768C433.238 -5.54937 431.198 -5.53061 426.028 -6.34715C419.051 -7.4492 419.198 -10.1497 419.198 -10.1497ZM456.906 0.857403C457.617 -1.66412 466.721 -1.01525 468.527 -0.353012C471.432 0.711912 471.318 5.19192 469.529 5.78211C467.208 6.54758 457.703 4.17726 456.906 0.857403ZM434.597 -19.9636C434.597 -19.9636 431.923 -17.933 433.215 -15.466C435.624 -10.8655 442.52 -14.6647 441.126 -18.6893C439.429 -23.5882 434.597 -19.9636 434.597 -19.9636ZM455.03 -10.4772C455.03 -10.4772 455.995 -7.26137 458.759 -7.60706C463.912 -8.25172 462.77 -16.0415 458.512 -16.1461C453.329 -16.2734 455.03 -10.4772 455.03 -10.4772ZM396.392 -9.29088C390.815 -6.40477 392.619 -1.18921 397.887 0.379277C403.622 2.08684 408.744 2.30802 410.302 -2.42215C411.636 -6.47208 401.808 -12.0941 396.392 -9.29088ZM474.369 20.285C473.661 24.9178 479.684 26.8422 482.9 27.6139C487.346 28.6805 490.957 25.4124 489.084 21.0117C485.52 12.6398 475.065 15.7243 474.369 20.285ZM324.328 -31.703L293.701 -19.3354C293.701 -19.3354 296.631 -5.1503 283.211 -6.26786C271.204 -7.26778 275.771 -20.5589 275.771 -20.5589C275.771 -20.5589 261.147 -21.5287 264.34 -33.025C267.786 -45.4358 281.168 -36.2776 281.168 -36.2776L313.066 -48.8198C313.066 -48.8198 313.337 -61.4824 325.113 -59.762C335.334 -58.2688 331.198 -46.8149 331.198 -46.8149C331.198 -46.8149 346.745 -45.3548 341.111 -33.1464C336.94 -24.1065 324.328 -31.703 324.328 -31.703ZM350.014 31.5438C350.014 31.5438 349.046 29.0565 350.918 27.3387C354.282 24.2511 362.976 29.6948 366.913 33.3903C372.596 38.7236 376.865 46.2022 373.251 49.4369C372.007 50.5512 369.081 50.2519 369.081 50.2519C369.081 50.2519 360.121 59.7279 357.919 60.2096C355.243 60.7951 339.83 45.4229 339.733 43.7638C339.595 41.402 350.014 31.5438 350.014 31.5438ZM382.609 161.288C397.209 154.878 412.152 150.548 426.706 143.579C428.722 145.705 430.064 147.214 432.773 148.262C438.354 150.421 444.035 146.839 443.434 140.646C443.027 136.45 440.004 133.471 435.946 132.742C435.254 132.618 432.2 133.029 432.459 131.538C432.633 130.536 433.417 129.39 433.681 128.336C434.857 123.648 431.173 119.278 426.683 117.684C421.11 115.705 418.073 121.733 418.282 123.541C418.485 125.284 419.46 127.796 421.394 129.786C406.892 135.939 392.327 142.973 378.013 149.634C375.646 147.515 375.199 145.185 371.577 144.324C365.467 142.872 361.168 147.831 362.943 153.806C364.098 157.696 370.651 158.521 370.606 160.407C370.575 161.681 368.85 162.657 369.118 164.9C369.706 169.819 376.907 171.704 380.848 169.839C383.904 168.393 388.289 162.044 382.609 161.288ZM93.5089 -13.0486C101.636 -17.9087 100.441 -25.2243 93.7341 -38.1715C103.654 -21.1395 107.467 -22.7079 115.599 -26.6747C109.832 -22.9345 106.092 -16.8869 115.065 -1.23672C108.534 -12.5114 102.249 -18.5108 93.5089 -13.0486Z" stroke="white" stroke-opacity="0.35" stroke-width="2" stroke-linecap="round" stroke-linejoin="round"/>
</g>
</g>
<defs>
<clipPath id="clip0_59_240">
<rect width="528.061" height="179.779" fill="white" transform="translate(-13.75 -15)"/>
</clipPath>
</defs>
</svg>
