<svg width="50" height="50" viewBox="0 0 50 50" fill="none" xmlns="http://www.w3.org/2000/svg">
<g clip-path="url(#clip0_535_814)">
<path d="M15.9082 6.45598C10.6496 4.00213 7.14391 -0.905768 5.12796 0.145937C3.11201 1.19764 2.58618 8.20879 1.70972 14.6945C0.833258 21.1801 -0.393694 27.1396 0.219924 32.5737C0.833542 38.0077 3.28745 42.9155 7.66975 45.8953C12.0521 48.875 18.3621 49.9267 24.6725 49.9267C30.9828 49.9266 37.2929 48.8749 41.675 45.8951C46.0571 42.9153 48.5109 38.0076 49.1245 32.5736C49.7381 27.1395 48.5112 21.1803 47.6347 14.6945C46.7582 8.2088 46.2324 1.19745 44.2166 0.145625C42.2008 -0.906197 38.6951 4.00177 33.4366 6.4558C28.1781 8.90982 21.1668 8.90982 15.9082 6.45598Z" fill="#F5C678"/>
<path d="M49.2824 28.8924C46.3379 28.5419 43.3931 28.1913 40.8689 28.5418C38.3446 28.8924 36.2412 29.944 33.612 29.9441C30.9828 29.9442 27.8278 28.8925 24.6725 28.8925C21.5172 28.8924 18.3622 29.944 15.7329 29.9442C13.1037 29.9443 11.0003 28.8926 8.47568 28.5419C5.95105 28.1912 3.00547 28.5418 0.0595862 28.8924C0.0595862 28.8924 -0.151234 28.8834 0.220221 32.647C0.833839 38.081 3.28774 42.9888 7.67005 45.9686C12.0524 48.9484 18.3624 50 24.6728 50C30.9831 50 37.2932 48.9483 41.6753 45.9684C46.0574 42.9886 48.5112 38.081 49.1248 32.6469L49.2824 28.8924Z" fill="#F5E0BE"/>
<path d="M49.2824 28.8924C46.3379 28.5419 43.3931 28.1913 40.8689 28.5418C38.3446 28.8924 36.2412 29.944 33.612 29.9441C30.9828 29.9442 27.8278 28.8925 24.6725 28.8925C21.5172 28.8924 18.3622 29.944 15.7329 29.9442C13.1037 29.9443 11.0003 28.8926 8.47568 28.5419C5.95105 28.1912 3.00547 28.5418 0.0595862 28.8924C0.0595862 28.8924 -0.151234 28.8834 0.220221 32.647C0.833839 38.081 3.28774 42.9888 7.67005 45.9686C12.0524 48.9484 18.3624 50 24.6728 50C30.9831 50 37.2932 48.9483 41.6753 45.9684C46.0574 42.9886 48.5112 38.081 49.1248 32.6469L49.2824 28.8924Z" fill="#F8F0E5"/>
<path d="M4.86269 5.47649C4.66307 6.84713 4.5699 8.27045 4.95599 8.88312C5.34207 9.49579 6.20714 9.29811 7.27851 9.00157C8.34989 8.70504 9.62753 8.30968 9.39464 7.03807C9.16175 5.76646 7.4183 3.61834 6.39336 3.20317C5.36841 2.78799 5.06231 4.10586 4.86269 5.47649Z" fill="#F8F0E5"/>
<path d="M44.4818 5.47649C44.6815 6.84713 44.7746 8.27045 44.3886 8.88312C44.0025 9.49579 43.1374 9.29811 42.066 9.00157C40.9946 8.70504 39.717 8.30968 39.9499 7.03807C40.1828 5.76646 41.9262 3.61834 42.9512 3.20317C43.9761 2.78799 44.2822 4.10586 44.4818 5.47649Z" fill="#F8F0E5"/>
<path d="M24.6722 37.832C22.9193 37.8319 21.1665 38.2178 19.4135 38.6037C19.4135 39.3052 19.4137 40.3567 21.1667 40.7071C22.9198 41.0576 26.4255 41.0576 28.1783 40.7071C29.9311 40.3567 29.931 39.3052 29.931 38.6037C28.1785 38.2179 26.4252 37.832 24.6722 37.832Z" fill="#FB9A77" stroke="#666666" stroke-width="1.5" stroke-linecap="square" stroke-linejoin="round"/>
<path d="M15.7499 28.2C17.4344 28.2 18.7999 27.1479 18.7999 25.85C18.7999 24.5521 17.4344 23.5 15.7499 23.5C14.0655 23.5 12.7 24.5521 12.7 25.85C12.7 27.1479 14.0655 28.2 15.7499 28.2Z" fill="black" stroke="black" stroke-width="1.2323" stroke-linecap="round" stroke-linejoin="round"/>
<path d="M33.6 28.2C35.2568 28.2 36.6 27.1479 36.6 25.85C36.6 24.5521 35.2568 23.5 33.6 23.5C31.9431 23.5 30.6 24.5521 30.6 25.85C30.6 27.1479 31.9431 28.2 33.6 28.2Z" fill="black" stroke="black" stroke-width="1.2323" stroke-linecap="round" stroke-linejoin="round"/>
<path d="M18.8878 20.9731C20.0321 20.9731 20.9597 20.0454 20.9597 18.9011C20.9597 17.7568 20.0321 16.8292 18.8878 16.8292C17.7434 16.8292 16.8158 17.7568 16.8158 18.9011C16.8158 20.0454 17.7434 20.9731 18.8878 20.9731Z" fill="#F8F0E5"/>
<path d="M30.4566 20.9731C31.6009 20.9731 32.5286 20.0454 32.5286 18.9011C32.5286 17.7568 31.6009 16.8292 30.4566 16.8292C29.3123 16.8292 28.3846 17.7568 28.3846 18.9011C28.3846 20.0454 29.3123 20.9731 30.4566 20.9731Z" fill="#F8F0E5"/>
<path d="M14.5725 36.1572C14.5539 36.7344 14.5353 37.3113 15.0937 37.6695C15.6521 38.0278 16.7871 38.1676 18.3688 38.2026C19.9505 38.2375 21.9787 38.1676 23.1036 37.8879C24.2284 37.6083 24.4503 37.1188 24.5612 36.4633C24.6722 35.8078 24.6722 34.9862 24.6722 34.1643" stroke="#666666" stroke-width="1.5" stroke-linecap="round" stroke-linejoin="round"/>
<path d="M34.7718 36.1572C34.7904 36.7344 34.809 37.3113 34.2506 37.6695C33.6922 38.0278 32.5571 38.1676 30.9755 38.2026C29.3938 38.2375 27.3656 38.1676 26.2407 37.8879C25.1159 37.6083 24.894 37.1188 24.7831 36.4633C24.6721 35.8078 24.6721 34.9862 24.6721 34.1643" stroke="#666666" stroke-width="1.5" stroke-linecap="round" stroke-linejoin="round"/>
<path d="M24.6722 34.22C23.6208 33.5147 22.5691 32.8091 22.2183 32.1057C21.8675 31.4023 22.2181 30.7012 23.0947 30.3505C23.9713 29.9999 25.3736 29.9999 26.25 30.3506C27.1263 30.7014 27.4769 31.4025 27.1263 32.1057C26.7756 32.8089 25.7239 33.5144 24.6722 34.22" fill="black"/>
<path d="M24.6722 34.22C23.6208 33.5147 22.5691 32.8091 22.2183 32.1057C21.8675 31.4023 22.2181 30.7012 23.0947 30.3505C23.9713 29.9999 25.3736 29.9999 26.25 30.3506C27.1263 30.7014 27.4769 31.4025 27.1263 32.1057C26.7756 32.8089 25.7239 33.5144 24.6722 34.22" stroke="black" stroke-width="0.264583"/>
</g>
<defs>
<clipPath id="clip0_535_814">
<rect width="49.29" height="50" fill="white"/>
</clipPath>
</defs>
</svg>
