<svg width="15" height="16" viewBox="0 0 15 16" fill="none" xmlns="http://www.w3.org/2000/svg">
<path fill-rule="evenodd" clip-rule="evenodd" d="M5 0.5C2.23858 0.5 0 2.73858 0 5.5V10.5C0 13.2614 2.23858 15.5 5 15.5H10C12.7614 15.5 15 13.2614 15 10.5V5.5C15 2.73858 12.7614 0.5 10 0.5H5ZM11.0304 5.73691C11.4013 6.07479 11.428 6.64934 11.0902 7.02021L8.33378 10.0457C8.30966 10.0874 8.2819 10.1277 8.25046 10.1662C7.9331 10.5548 7.36083 10.6125 6.97225 10.2951L4.33382 8.14029C3.94524 7.82294 3.88751 7.25066 4.20486 6.86209C4.52222 6.47351 5.09449 6.41577 5.48307 6.73313L7.43876 8.33037L9.74713 5.79663C10.085 5.42577 10.6596 5.39902 11.0304 5.73691Z" fill="#F5C678"/>
</svg>
