<svg width="50" height="50" viewBox="0 0 50 50" fill="none" xmlns="http://www.w3.org/2000/svg">
<path d="M25 0C25.9633 0 26.7442 0.780899 26.7442 1.74419V4.06977C26.7442 5.03306 25.9633 5.81395 25 5.81395C24.0367 5.81395 23.2558 5.03306 23.2558 4.06977V1.74419C23.2558 0.780899 24.0367 0 25 0Z" fill="#F5C678"/>
<path fill-rule="evenodd" clip-rule="evenodd" d="M11.6279 25C11.6279 17.6148 17.6148 11.6279 25 11.6279C32.3852 11.6279 38.3721 17.6148 38.3721 25C38.3721 32.3852 32.3852 38.3721 25 38.3721C17.6148 38.3721 11.6279 32.3852 11.6279 25Z" fill="#F5C678"/>
<path d="M9.78901 7.32238C9.10787 6.64124 8.00351 6.64124 7.32236 7.32238C6.64122 8.00353 6.64122 9.10789 7.32236 9.78904L8.9668 11.4335C9.64795 12.1146 10.7523 12.1146 11.4334 11.4335C12.1146 10.7523 12.1146 9.64797 11.4334 8.96682L9.78901 7.32238Z" fill="#F5C678"/>
<path d="M50 25C50 25.9633 49.2191 26.7442 48.2558 26.7442H45.9302C44.9669 26.7442 44.186 25.9633 44.186 25C44.186 24.0367 44.9669 23.2558 45.9302 23.2558H48.2558C49.2191 23.2558 50 24.0367 50 25Z" fill="#F5C678"/>
<path d="M42.6776 9.78901C43.3588 9.10787 43.3588 8.00351 42.6776 7.32236C41.9965 6.64122 40.8921 6.64122 40.211 7.32236L38.5665 8.9668C37.8854 9.64795 37.8854 10.7523 38.5665 11.4334C39.2477 12.1146 40.352 12.1146 41.0332 11.4334L42.6776 9.78901Z" fill="#F5C678"/>
<path d="M25 44.186C25.9633 44.186 26.7442 44.9669 26.7442 45.9302V48.2558C26.7442 49.2191 25.9633 50 25 50C24.0367 50 23.2558 49.2191 23.2558 48.2558V45.9302C23.2558 44.9669 24.0367 44.186 25 44.186Z" fill="#F5C678"/>
<path d="M41.0333 38.5666C40.3522 37.8854 39.2478 37.8854 38.5667 38.5666C37.8855 39.2477 37.8855 40.3521 38.5667 41.0332L40.2111 42.6777C40.8923 43.3588 41.9966 43.3588 42.6778 42.6777C43.3589 41.9965 43.3589 40.8921 42.6778 40.211L41.0333 38.5666Z" fill="#F5C678"/>
<path d="M5.81395 25C5.81395 25.9633 5.03305 26.7442 4.06977 26.7442H1.74419C0.780899 26.7442 0 25.9633 0 25C0 24.0367 0.780899 23.2558 1.74419 23.2558H4.06977C5.03306 23.2558 5.81395 24.0367 5.81395 25Z" fill="#F5C678"/>
<path d="M11.4333 41.0332C12.1144 40.3521 12.1144 39.2477 11.4333 38.5665C10.7521 37.8854 9.64779 37.8854 8.96664 38.5665L7.32221 40.211C6.64106 40.8921 6.64106 41.9965 7.32221 42.6776C8.00336 43.3588 9.10771 43.3588 9.78886 42.6776L11.4333 41.0332Z" fill="#F5C678"/>
</svg>
